<svg width="152" height="20" fill="none" xmlns="http://www.w3.org/2000/svg"><path d="M8.294 1.185h3.302l2.08 6.11 2.08-6.11h3.328l-3.146 8.398 2.34 5.902 5.226-14.352h3.9l-7.514 18.46h-3.016l-3.198-7.748-3.198 7.748H7.462L0 1.133h3.848L9.1 15.485l2.288-5.902-3.094-8.398zm26.085 18.668c-1.092 0-2.08-.183-2.964-.547a6.959 6.959 0 01-2.262-1.534 6.925 6.925 0 01-1.456-2.235 7.343 7.343 0 01-.494-2.679c0-.97.165-1.88.494-2.73a6.53 6.53 0 011.43-2.261 6.764 6.764 0 012.262-1.56c.902-.382 1.907-.572 3.016-.572 1.11 0 2.098.19 2.964.572.884.38 1.63.892 2.236 1.534a6.27 6.27 0 011.404 2.235c.33.85.494 1.734.494 2.652 0 .226-.008.443-.026.65 0 .208-.017.382-.052.52h-10.53c.052.538.182 1.014.39 1.43a3.51 3.51 0 001.924 1.742c.416.157.85.235 1.3.235.694 0 1.344-.165 1.95-.494.624-.347 1.049-.798 1.274-1.352l2.99.832c-.502 1.04-1.308 1.898-2.418 2.573-1.092.66-2.4.988-3.926.988zm3.536-8.217c-.086-1.022-.468-1.837-1.144-2.443-.658-.624-1.464-.936-2.418-.936-.468 0-.91.086-1.326.26a3.278 3.278 0 00-1.066.676c-.312.294-.572.65-.78 1.066-.19.415-.303.875-.338 1.377h7.072zm14.239 8.216c-1.04 0-1.968-.233-2.782-.701a5.125 5.125 0 01-1.924-1.924v2.366h-3.042V.613h3.484V8.36c.485-.832 1.118-1.474 1.898-1.924.797-.468 1.724-.702 2.782-.702.884 0 1.69.19 2.418.572A5.927 5.927 0 0156.86 7.84a6.622 6.622 0 011.222 2.261c.294.867.442 1.777.442 2.73 0 .988-.165 1.907-.494 2.756a6.891 6.891 0 01-1.326 2.237 6.384 6.384 0 01-2.028 1.482 5.89 5.89 0 01-2.522.546zm-.962-2.963c.554 0 1.066-.104 1.534-.313.468-.225.866-.52 1.196-.883.33-.364.58-.79.754-1.274.19-.486.286-1.006.286-1.56 0-.555-.087-1.084-.26-1.586a4.004 4.004 0 00-.754-1.326 3.543 3.543 0 00-1.118-.91 3.053 3.053 0 00-1.43-.338c-.78 0-1.482.26-2.106.78a5.035 5.035 0 00-1.404 1.872v3.25c.121.346.294.658.52.935.242.278.511.52.806.729.294.19.615.346.962.468a3.52 3.52 0 001.014.155zm28.834-10.92c-.121-.122-.346-.286-.676-.494a6.638 6.638 0 00-1.17-.598 8.75 8.75 0 00-1.482-.52 6.53 6.53 0 00-1.638-.208c-.988 0-1.724.182-2.21.546-.485.364-.728.875-.728 1.534 0 .38.087.702.26.962.191.242.46.459.806.65.347.19.78.364 1.3.52.538.156 1.153.32 1.846.494a25.56 25.56 0 012.444.78c.746.277 1.37.623 1.872 1.04.52.415.919.918 1.196 1.507.278.572.416 1.283.416 2.133 0 .988-.19 1.837-.572 2.548a4.57 4.57 0 01-1.508 1.69c-.624.433-1.352.753-2.184.962-.814.19-1.672.285-2.574.285-1.386 0-2.756-.207-4.108-.623a12.682 12.682 0 01-3.64-1.768l1.586-3.094c.156.155.434.364.832.623.416.243.902.494 1.456.755.555.242 1.17.45 1.846.624.676.173 1.37.26 2.08.26 1.976 0 2.964-.633 2.964-1.899 0-.398-.112-.736-.338-1.014-.225-.277-.546-.52-.962-.727a9.216 9.216 0 00-1.508-.572c-.589-.174-1.248-.364-1.976-.572a18.881 18.881 0 01-2.314-.78c-.641-.295-1.178-.633-1.612-1.014a4.117 4.117 0 01-.988-1.352c-.208-.52-.312-1.136-.312-1.846 0-.936.174-1.768.52-2.496a5.104 5.104 0 011.43-1.82 6.497 6.497 0 012.158-1.092 8.59 8.59 0 012.626-.39c1.3 0 2.496.208 3.588.624 1.092.398 2.046.875 2.86 1.43l-1.586 2.912zM93.427 18.89c-.468.209-1.04.416-1.716.625a7.209 7.209 0 01-2.132.311c-.485 0-.944-.06-1.378-.181a3.257 3.257 0 01-1.118-.572 3.094 3.094 0 01-.754-1.04c-.19-.434-.286-.954-.286-1.56V8.646H84.25V5.969h1.794v-4.42h3.484v4.42h2.86v2.678h-2.86v6.655c0 .486.122.832.364 1.04.26.191.572.287.936.287.364 0 .72-.061 1.066-.183.347-.12.624-.225.832-.312l.702 2.756zm6.755.962c-1.404 0-2.47-.45-3.198-1.352-.728-.9-1.092-2.235-1.092-4.004V5.97h3.484v7.773c0 2.098.754 3.146 2.262 3.146.676 0 1.326-.199 1.95-.598.641-.415 1.161-1.04 1.56-1.871v-8.45h3.484v9.62c0 .364.061.623.182.78.139.155.355.242.65.26v2.963a7.252 7.252 0 01-1.508.157c-.624 0-1.135-.14-1.534-.416a1.752 1.752 0 01-.676-1.196l-.078-1.093c-.607.936-1.387 1.639-2.34 2.107-.953.468-2.002.701-3.146.701zm18.334 0a6.185 6.185 0 01-2.6-.546 6.133 6.133 0 01-2.054-1.508 7.268 7.268 0 01-1.352-2.235 8.151 8.151 0 01-.468-2.783c0-.987.147-1.906.442-2.755a7.45 7.45 0 011.274-2.236 5.812 5.812 0 011.924-1.508 5.493 5.493 0 012.444-.546c1.005 0 1.907.242 2.704.728a5.243 5.243 0 011.898 1.898V.613h3.484v14.976c0 .364.061.623.182.78.121.155.329.242.624.26v2.963c-.607.122-1.101.183-1.482.183-.624 0-1.135-.156-1.534-.468a1.716 1.716 0 01-.676-1.223l-.078-.857a5.007 5.007 0 01-2.054 1.976 5.814 5.814 0 01-2.678.65zm.91-2.963c.329 0 .667-.052 1.014-.156a3.883 3.883 0 001.742-1.223 2.88 2.88 0 00.546-.91v-3.25a3.467 3.467 0 00-.598-1.04 3.565 3.565 0 00-.858-.831 3.912 3.912 0 00-1.014-.572 2.782 2.782 0 00-1.04-.208c-.52 0-1.005.112-1.456.338a3.404 3.404 0 00-1.118.936 4.265 4.265 0 00-.728 1.325 4.761 4.761 0 00-.26 1.56c0 .572.095 1.101.286 1.586.191.486.451.91.78 1.274s.719.65 1.17.858c.468.209.979.313 1.534.313zm10.986 2.704V5.969h3.484v13.623h-3.484zm0-15.522V.613h3.484V4.07h-3.484zm13.699 15.781c-1.109 0-2.106-.19-2.99-.572a6.959 6.959 0 01-2.262-1.534 7.077 7.077 0 01-1.404-2.261 7.35 7.35 0 01-.494-2.678c0-.954.165-1.855.494-2.705a6.78 6.78 0 011.404-2.235 6.764 6.764 0 012.262-1.56c.884-.382 1.881-.572 2.99-.572 1.109 0 2.097.19 2.964.572a6.49 6.49 0 012.236 1.56 6.58 6.58 0 011.43 2.235c.329.85.494 1.751.494 2.704a7.35 7.35 0 01-.494 2.679 7.077 7.077 0 01-1.404 2.262c-.607.64-1.352 1.152-2.236 1.534-.884.38-1.881.572-2.99.572zm-3.562-7.046c0 .607.087 1.162.26 1.665.191.485.442.91.754 1.274.329.364.711.65 1.144.857.433.191.901.287 1.404.287.503 0 .971-.096 1.404-.287a3.39 3.39 0 001.118-.857c.329-.364.581-.798.754-1.3a4.65 4.65 0 00.286-1.665c0-.589-.095-1.135-.286-1.637a3.718 3.718 0 00-.754-1.3 3.104 3.104 0 00-1.118-.832 3.2 3.2 0 00-1.404-.312 3.2 3.2 0 00-1.404.312 3.676 3.676 0 00-1.144.858 4.35 4.35 0 00-.754 1.3 5.002 5.002 0 00-.26 1.637z" fill="#000"/></svg>